<svg version="1.1" xmlns="http://www.w3.org/2000/svg" xmlns:xlink="http://www.w3.org/1999/xlink" width="57.9381" height="79.4199" viewBox="0,0,57.9381,79.4199"><g transform="translate(-204.05899,-150.88453)"><g data-paper-data="{&quot;isPaintingLayer&quot;:true}" fill-rule="nonzero" stroke="none" stroke-width="0.7942" stroke-linecap="butt" stroke-linejoin="miter" stroke-miterlimit="10" stroke-dasharray="" stroke-dashoffset="0" style="mix-blend-mode: normal"><path d="M240.43885,150.88454c1.3474,0 2.69481,0 4.04221,0c0.51066,5.2592 5.16175,8.0762 6.73683,12.7072c-2.61524,5.5451 -9.06247,6.2837 -14.82125,11.1188c9.82253,6.3877 24.18435,10.1006 25.60046,21.4433c0,1.0587 0,2.1182 0,3.1768c-5.55519,13.4037 -13.49149,25.404 -32.33747,30.9738c-2.24624,0 -4.49095,0 -6.73701,0c-6.62792,-4.0354 -12.02024,-8.799 -16.16882,-14.2956c8.58964,-5.0876 22.86935,-7.7903 22.90583,-15.0898c0.04445,-8.8378 -24.59017,-11.604 -25.60063,-21.4433c0,-1.324 0,-2.6471 0,-3.971c6.58211,-11.4754 15.98017,-21.2901 36.37985,-24.6202zM214.83821,165.18014c-0.38682,9.7297 -3.2243,13.3648 5.3896,19.0607c5.80865,3.8416 15.32259,5.0043 17.51623,8.7362c4.43954,7.5544 -4.33469,15.7887 -16.16882,19.855c1.50637,3.8773 3.00595,7.7585 9.43181,8.7362c13.34321,-8.2438 32.70529,-16.8251 25.60046,-30.1796c-4.41664,-8.3017 -27.3871,-10.4548 -28.29527,-18.2665c-0.68185,-5.8604 9.34546,-9.2445 17.51605,-9.5304c-2.35787,-3.1109 -2.73247,-7.39 -6.73684,-9.5304c-8.97781,3.18 -18.61033,5.9732 -24.25323,11.1188z" fill="#000000"/><path d="M238.96205,153.8695c4.02699,2.1404 4.40371,6.4195 6.7749,9.5304c-8.21675,0.2859 -18.3007,3.67 -17.615,9.5304c0.9133,7.8117 24.01352,9.9648 28.45511,18.2665c7.14495,13.3545 -12.32649,21.9358 -25.74508,30.1796c-6.46216,-0.9777 -7.97021,-4.8589 -9.4851,-8.7362c11.90098,-4.0663 20.72478,-12.3006 16.26016,-19.855c-2.20603,-3.7319 -11.7737,-4.8946 -17.61517,-8.7362c-8.66257,-5.6959 -5.80906,-9.331 -5.42005,-19.0607c5.67478,-5.1456 15.36171,-7.9388 24.39024,-11.1188z" fill="#ff9400"/></g></g></svg>