<svg version="1.1" xmlns="http://www.w3.org/2000/svg" xmlns:xlink="http://www.w3.org/1999/xlink" width="26.99871" height="80.36307" viewBox="0,0,26.99871,80.36307"><g transform="translate(-226.02388,-139.99569)"><g data-paper-data="{&quot;isPaintingLayer&quot;:true}" fill-rule="nonzero" stroke="none" stroke-width="1" stroke-linecap="butt" stroke-linejoin="miter" stroke-miterlimit="10" stroke-dasharray="" stroke-dashoffset="0" style="mix-blend-mode: normal"><path d="M232.8,147.4c0,0 -7.2,-2.7 -2.2,-5.9c5.6,-3.5 27.1,-0.7 14.5,6.4c0,0 3.8,51.8 7.8,66.3c1.4,4.9 -9.5,6.5 -16.9,6.1c-8.9,-0.5 -10.6,-3 -9.8,-6.2c1.3,-4.8 6.5,-57 6.6,-66.7z" fill="#000000"/><path d="M228.4,215.2c3.2,-22.5 2.5,-43.3 4.5,-47.2c1.3,-2.6 10.1,-2 12.1,0.5c1.6,1.9 2.5,34 5.5,46.3c1,4.4 -22.8,5.4 -22.1,0.4z" fill="#6136ab"/><path d="M232.7,168.3c0.2,-2.7 10.9,-2.5 12.3,0.2c-0.1,1.7 -12.5,1 -12.3,-0.2z" fill="#8440cc"/><path d="M250.5,214.9c0.7,4.3 -20.6,5.1 -22.1,0.9c-0.3,-0.5 -0.4,-2 10.1,-2.7c12.2,-0.8 12,1.8 12,1.8z" fill="#3d2087"/><path d="M246.4,142.8c0,1 -3,2 -7.5,2c-4.5,0 -7.8,-0.4 -7.8,-1.4c0,-1 3.3,-2.4 7.9,-2.4c4.6,0 7.4,0.8 7.4,1.8z" fill="#b6cfd1"/><path d="M246.4,142.8c0,0 0,0.1 0,0.2c0,0.1 -0.1,0.3 -0.3,0.4c-0.2,0.1 -0.4,0.3 -0.7,0.4c-0.3,0.1 -0.6,0.2 -1,0.3c-0.7,0.2 -1.6,0.3 -2.6,0.4c-1,0.1 -2,0.1 -3,0.2c-1,0 -2,0 -3,-0.1c-1,0 -1.8,-0.2 -2.6,-0.3c-0.7,0 -1.3,-0.2 -1.7,-0.4c-0.2,-0.1 -0.3,-0.2 -0.4,-0.4c-0.1,-0.1 0,-0.2 0,-0.2c0,0 0,0.1 0,0.2c0.1,0.1 0.2,0.2 0.4,0.3c0.5,0.2 1.1,0.3 1.8,0.3c0.8,0.1 1.7,0.1 2.6,0.1c0.9,0 1.9,0 3,0c1,0 2,0 3,-0.1c0.9,-0.1 1.8,-0.1 2.6,-0.3c0.7,-0.1 1.4,-0.3 1.7,-0.5c0.2,-0.1 0.3,-0.2 0.3,-0.4z" fill="#96b7c4"/><path d="M231,146.7c0,0 0.4,0.2 0.9,0.4c0.6,0.1 1.3,0.4 2.1,0.6c0.4,0.1 0.8,0.2 1.1,0.2c0.4,0.1 0.7,0.1 1,0.2c0.3,0.1 0.5,0.1 0.7,0.1c0.2,0 0.3,0.1 0.3,0.1c0,0 -0.4,0.1 -1,0.1c-0.3,0 -0.7,0 -1,0c-0.4,0 -0.8,-0.1 -1.2,-0.2c-0.8,-0.2 -1.6,-0.6 -2.1,-0.9c-0.5,-0.3 -0.8,-0.6 -0.8,-0.6z" fill="#96b7c4"/><path d="M248.9,143.8c0,0 0,0.6 -0.4,1.4c-0.2,0.4 -0.5,0.9 -0.9,1.3c-0.4,0.4 -0.9,0.8 -1.4,1.1c-0.5,0.3 -1.1,0.5 -1.6,0.6c-0.3,0.1 -0.5,0.1 -0.8,0.1c-0.3,0 -0.5,0 -0.7,0c-0.4,0.1 -0.8,0 -1.1,0c-0.3,0 -0.4,0 -0.4,0c0,0 0.1,0 0.4,-0.1c0.3,0 0.6,-0.1 1,-0.1c0.2,0 0.4,-0.1 0.7,-0.1c0.2,-0.1 0.5,-0.1 0.7,-0.2c0.3,-0.1 0.5,-0.2 0.8,-0.3c0.3,-0.1 0.5,-0.2 0.8,-0.4c0.2,-0.2 0.5,-0.3 0.7,-0.5c0.2,-0.2 0.4,-0.3 0.6,-0.5c0.4,-0.4 0.7,-0.7 0.9,-1.1c0.5,-0.6 0.7,-1.2 0.7,-1.2z" fill="#96b7c4"/><path d="M230.7,143.4c0,0 -0.1,0.1 -0.1,0.4c0,0.1 0,0.3 0.1,0.4c0.1,0.2 0.3,0.3 0.5,0.4c0.2,0.2 0.4,0.3 0.6,0.4c0.2,0.1 0.5,0.1 0.8,0.2c0.6,0.1 1.2,0.2 1.8,0.3c0.3,0.1 0.6,0.1 0.9,0.1c0.3,0 0.6,0.1 0.9,0.1c0.6,0 1.2,0.1 1.6,0.1c1,0.1 1.6,0.1 1.6,0.1c0,0 -0.4,0.1 -1.4,0.2c-0.5,0 -1.1,0 -1.7,0c-0.3,0 -0.6,0 -0.9,0c-0.3,-0.1 -0.7,-0.1 -1,-0.1c-0.6,-0.1 -1.3,-0.2 -1.9,-0.4c-0.3,-0.1 -0.6,-0.2 -0.8,-0.3c-0.3,-0.1 -0.5,-0.3 -0.7,-0.4c-0.2,-0.2 -0.4,-0.4 -0.4,-0.6c-0.1,-0.2 -0.1,-0.4 -0.1,-0.5c0,-0.3 0.2,-0.4 0.2,-0.4z" fill="#ffffff"/><path d="M234.4,206.9c0,0 0.1,0 0.3,0c0.2,0 0.5,0.1 0.7,0.3c0.1,0.1 0.2,0.3 0.2,0.5v0.2v0.1c0,0.1 -0.1,0.2 -0.1,0.3c-0.2,0.4 -0.6,0.6 -1,0.7c-0.2,0 -0.5,0 -0.7,-0.1c-0.2,-0.1 -0.4,-0.3 -0.5,-0.5c-0.1,-0.2 -0.2,-0.5 -0.1,-0.6c0,-0.2 0.1,-0.4 0.2,-0.6c0.3,-0.2 0.6,-0.3 0.7,-0.3c0.2,0 0.3,0 0.3,0zM234.4,206.9c0,0 -0.1,0 -0.3,0.1c-0.2,0.1 -0.3,0.3 -0.4,0.5c0,0.1 -0.1,0.2 -0.1,0.3c0,0.2 0,0.3 0.1,0.4c0,0.1 0.1,0.2 0.3,0.3c0.1,0.1 0.3,0.2 0.5,0.2c0.2,0 0.4,0 0.5,-0.1c0.1,-0.1 0.2,-0.3 0.3,-0.4c0,-0.1 0,-0.3 0,-0.4c0,-0.1 -0.1,-0.2 -0.1,-0.4c-0.2,-0.2 -0.4,-0.4 -0.5,-0.4c-0.2,-0.1 -0.3,-0.1 -0.3,-0.1z" fill="#ad9cff"/><path d="M246.8,204c0,0 0,0.2 -0.2,0.5c-0.1,0.1 -0.1,0.1 -0.2,0.1c-0.1,0 -0.2,0 -0.3,0c-0.3,0 -0.5,-0.3 -0.5,-0.6c0,-0.1 0.1,-0.3 0.1,-0.4c0.1,-0.1 0.2,-0.2 0.3,-0.2c0.2,-0.1 0.5,0 0.6,0.2c0.3,0.2 0.2,0.4 0.2,0.4zM246.8,204c0,-0.2 -0.1,-0.3 -0.2,-0.3c-0.1,0 -0.3,0 -0.4,0.1l-0.1,0.1c0,0.1 0,0.1 0,0.2c0,0.1 0,0.2 0.1,0.3c0,0 0.1,0.1 0.2,0.1c0.1,0 0.1,0 0.2,0c0.1,0 0.2,-0.2 0.2,-0.2c0,-0.2 0,-0.3 0,-0.3z" fill="#ad9cff"/><path d="M244.6,204.8c0,0 -0.2,0.1 -0.6,0.3c-0.4,0.2 -1,0.4 -1.7,0.1c-0.4,-0.1 -0.7,-0.3 -1,-0.7c-0.1,-0.1 -0.1,-0.2 -0.2,-0.3c0,-0.1 -0.1,-0.2 -0.1,-0.3c-0.1,-0.2 -0.2,-0.4 -0.2,-0.7c-0.1,-0.9 0.2,-1.9 1,-2.5c0.4,-0.3 0.9,-0.5 1.4,-0.6c0.5,0 1,0.1 1.4,0.3c0.4,0.2 0.8,0.6 1,1c0.2,0.4 0.3,0.8 0.3,1.2c0,0.8 -0.4,1.3 -0.7,1.6c-0.4,0.4 -0.6,0.6 -0.6,0.6zM244.5,204.7c0,0 0,0 0.1,-0.1c0.1,-0.1 0.2,-0.2 0.3,-0.3c0.2,-0.3 0.4,-0.9 0.3,-1.5c0,-0.3 -0.1,-0.6 -0.3,-0.9c-0.2,-0.3 -0.4,-0.6 -0.8,-0.8c-0.7,-0.4 -1.6,-0.4 -2.3,0c-0.4,0.2 -0.7,0.6 -0.8,1c-0.2,0.4 -0.2,0.9 0,1.3c0.1,0.4 0.4,0.7 0.6,1c0.3,0.3 0.5,0.4 0.8,0.6c0.6,0.3 1.2,0.3 1.6,0.1c0.2,-0.1 0.3,-0.1 0.4,-0.2c0.1,-0.2 0.1,-0.2 0.1,-0.2z" fill="#ad9cff"/><path d="M240.8,198.4c0,0 -0.1,0.1 -0.3,0.1c-0.2,0.1 -0.5,0.2 -0.9,0.1c-0.2,-0.1 -0.4,-0.2 -0.5,-0.4c0,-0.1 -0.1,-0.1 -0.1,-0.2c0,0 0,-0.1 -0.1,-0.2c0,-0.1 0,-0.2 0,-0.4c0,-0.5 0.2,-0.9 0.7,-1.3c0.2,-0.2 0.5,-0.3 0.7,-0.3c0.3,0 0.5,0.1 0.8,0.2c0.2,0.1 0.4,0.4 0.5,0.6c0.1,0.2 0.1,0.5 0.1,0.7c-0.1,0.4 -0.4,0.6 -0.5,0.8c-0.3,0.3 -0.4,0.3 -0.4,0.3zM240.8,198.4c0,0 0.1,-0.1 0.2,-0.2c0.1,-0.2 0.2,-0.4 0.2,-0.7c0,-0.1 -0.1,-0.3 -0.1,-0.4c-0.1,-0.2 -0.2,-0.3 -0.3,-0.4c-0.1,-0.1 -0.3,-0.2 -0.5,-0.2c-0.2,0 -0.4,0 -0.6,0.1c-0.2,0.1 -0.4,0.2 -0.5,0.4c-0.1,0.2 -0.1,0.4 -0.1,0.6c0,0.2 0.2,0.3 0.3,0.5c0.1,0.1 0.2,0.2 0.3,0.3c0.2,0.2 0.5,0.3 0.7,0.2c0.3,-0.1 0.4,-0.2 0.4,-0.2z" fill="#ad9cff"/><path d="M237.8,188.5c0,0 0,0.3 -0.3,0.6c-0.1,0.1 -0.2,0.1 -0.3,0.2c-0.1,0 -0.3,0 -0.4,0c-0.3,-0.1 -0.6,-0.4 -0.6,-0.8c0,-0.2 0.1,-0.4 0.2,-0.5c0.1,-0.1 0.3,-0.2 0.4,-0.3c0.3,-0.1 0.6,0 0.7,0.2c0.3,0.3 0.3,0.6 0.3,0.6zM237.8,188.5c0,0 0,-0.1 0,-0.2c0,-0.1 -0.1,-0.3 -0.3,-0.3c-0.2,-0.1 -0.4,-0.1 -0.5,0.1c-0.1,0.1 -0.1,0.1 -0.2,0.2c0,0.1 -0.1,0.1 -0.1,0.2c0,0.2 0.1,0.3 0.2,0.5c0.1,0 0.2,0 0.3,0c0.1,0 0.2,0 0.3,0c0.2,-0.1 0.3,-0.2 0.3,-0.3c0,-0.1 0,-0.2 0,-0.2z" fill="#ad9cff"/><path d="M235.2,205.2c0,0 -0.3,-0.1 -0.4,-0.5c0,-0.1 0,-0.2 0,-0.4c0,-0.1 0.1,-0.3 0.2,-0.4c0.2,-0.3 0.6,-0.3 0.9,-0.2c0.1,0.1 0.3,0.2 0.4,0.4c0.1,0.2 0.1,0.3 0.1,0.5c-0.1,0.3 -0.3,0.5 -0.5,0.6c-0.4,0.1 -0.7,-0.1 -0.7,0zM235.2,205.2c0,0 0.1,0 0.2,0c0.1,0 0.3,0 0.4,-0.1c0.2,-0.1 0.2,-0.3 0.2,-0.5c0,-0.1 -0.1,-0.2 -0.1,-0.2c-0.1,-0.1 -0.1,-0.1 -0.2,-0.2c-0.1,-0.1 -0.3,-0.1 -0.5,0c-0.1,0 -0.2,0.1 -0.2,0.2c0,0.1 -0.1,0.2 -0.1,0.3c0,0.2 0.1,0.3 0.2,0.4c0.1,0 0.1,0.1 0.1,0.1z" fill="#ad9cff"/><path d="M234.9,153.2c0,0 0,0.9 0,2.6c0,1.6 0,3.9 -0.1,6.7c-0.1,2.8 -0.2,6 -0.3,9.5c-0.2,3.5 -0.4,7.2 -0.7,10.9c-0.3,3.7 -0.7,7.4 -1,10.9c-0.2,1.7 -0.4,3.4 -0.6,5c-0.2,1.6 -0.4,3.1 -0.6,4.5c-0.3,2.8 -0.7,5.1 -1,6.7c-0.2,1.6 -0.4,2.5 -0.4,2.5c0,0 0.1,-0.9 0.3,-2.5c0.2,-1.6 0.4,-3.9 0.8,-6.7c0.1,-1.4 0.3,-2.9 0.5,-4.5c0.2,-1.6 0.3,-3.3 0.5,-5c0.3,-3.5 0.7,-7.2 0.9,-10.8c0.3,-3.7 0.6,-7.4 0.8,-10.9c0.2,-3.5 0.4,-6.7 0.5,-9.5c0.3,-5.7 0.4,-9.4 0.4,-9.4z" fill="#ffffff"/><path d="M238.5,220.3c0,0 0.8,0 2.1,-0.2c1.3,-0.2 3.3,-0.4 5.5,-0.9c1.1,-0.3 2.3,-0.6 3.5,-1.2c0.6,-0.3 1.2,-0.6 1.7,-1c0.5,-0.4 0.9,-1 1.1,-1.6c0.1,-0.6 -0.1,-1.3 -0.3,-2.1c-0.2,-0.7 -0.4,-1.5 -0.5,-2.2c-0.3,-1.5 -0.6,-3 -0.9,-4.6c-0.5,-3.1 -0.9,-6.2 -1.3,-9.1c-0.3,-2.9 -0.6,-5.6 -0.8,-7.9c-0.4,-4.6 -0.6,-7.8 -0.6,-7.8c0,0 0.3,3.1 0.8,7.7c0.3,2.3 0.6,5 1,7.9c0.4,2.9 0.8,6 1.3,9c0.3,1.5 0.6,3.1 0.9,4.5c0.1,0.7 0.3,1.5 0.5,2.2c0.1,0.4 0.2,0.7 0.3,1.1c0.1,0.4 0.1,0.8 0,1.2c-0.2,0.8 -0.7,1.4 -1.2,1.9c-0.6,0.5 -1.2,0.8 -1.8,1.1c-1.3,0.5 -2.5,0.8 -3.6,1.1c-2.3,0.5 -4.2,0.6 -5.6,0.7c-1.3,0.2 -2.1,0.2 -2.1,0.2z" fill="#96b7c4"/><path d="M239,218.4c0,0 0.6,0 1.7,-0.1c1.1,-0.1 2.6,-0.3 4.4,-0.6c0.9,-0.2 1.8,-0.4 2.8,-0.8c0.5,-0.2 1,-0.4 1.4,-0.7c0.4,-0.3 0.7,-0.7 0.7,-1.2c-0.2,-1.1 -0.4,-2.3 -0.6,-3.4c-0.2,-1.2 -0.3,-2.4 -0.5,-3.6c-0.7,-4.8 -1.2,-9.7 -1.5,-13.3c-0.3,-3.6 -0.4,-6.1 -0.4,-6.1c0,0 0.2,2.4 0.7,6.1c0.4,3.6 1,8.5 1.7,13.3c0.2,1.2 0.4,2.4 0.5,3.6c0.1,0.6 0.2,1.2 0.3,1.8c0.1,0.6 0.2,1.1 0.3,1.8c0,0.7 -0.5,1.2 -0.9,1.6c-0.5,0.3 -1,0.6 -1.5,0.8c-1,0.4 -2,0.6 -2.9,0.7c-1.8,0.3 -3.3,0.4 -4.4,0.4c-1.2,-0.3 -1.8,-0.3 -1.8,-0.3z" fill="#1a1d3d"/><path d="M250.5,214.9c0,0 0,-0.1 -0.1,-0.2c-0.1,-0.1 -0.2,-0.2 -0.4,-0.3c-0.2,-0.1 -0.5,-0.2 -0.8,-0.3c-0.3,-0.1 -0.7,-0.2 -1.1,-0.3c-0.8,-0.2 -1.7,-0.3 -2.8,-0.3c-1,-0.1 -2.1,-0.1 -3.2,-0.1c-1.1,0 -2.2,0 -3.2,0c-1,0 -2,0.1 -2.8,0.1c-1.6,0.1 -2.7,0.1 -2.7,0.1c0,0 1.1,-0.2 2.7,-0.4c0.9,-0.1 1.8,-0.2 2.9,-0.2c1,0 2.1,-0.1 3.2,-0.1c1.1,0 2.2,0 3.2,0.1c1,0.1 2,0.3 2.8,0.5c0.4,0.1 0.8,0.2 1.1,0.4c0.3,0.1 0.6,0.3 0.8,0.4c0.2,0.1 0.3,0.3 0.4,0.4c0,0.1 0,0.2 0,0.2z" fill="#1a1d3d"/><path d="M237.9,213.7c0,0 -0.1,0.1 -0.3,0.2c-0.2,0.1 -0.6,0.3 -1.1,0.2c-0.2,0 -0.5,-0.2 -0.7,-0.4c-0.1,-0.1 -0.1,-0.1 -0.1,-0.2c0,-0.1 -0.1,-0.1 -0.1,-0.2c-0.1,-0.1 -0.1,-0.3 -0.1,-0.4c-0.1,-0.6 0.1,-1.2 0.5,-1.7c0.2,-0.2 0.5,-0.4 0.9,-0.5c0.3,-0.1 0.7,0 1,0.1c0.3,0.1 0.6,0.4 0.7,0.6c0.2,0.3 0.2,0.5 0.2,0.8c0,0.5 -0.3,0.9 -0.4,1.1c-0.4,0.4 -0.5,0.4 -0.5,0.4zM237.9,213.7c0,0 0.1,-0.1 0.2,-0.3c0.1,-0.2 0.2,-0.6 0.1,-1c-0.1,-0.2 -0.1,-0.4 -0.2,-0.5c-0.1,-0.2 -0.3,-0.3 -0.5,-0.4c-0.2,-0.1 -0.4,-0.2 -0.7,-0.2c-0.3,0 -0.5,0.1 -0.7,0.2c-0.2,0.1 -0.4,0.4 -0.5,0.6c-0.1,0.3 -0.1,0.6 0.1,0.8c0.1,0.2 0.3,0.4 0.4,0.6c0.2,0.1 0.3,0.2 0.5,0.3c0.4,0.2 0.7,0.2 1,0.1c0.2,-0.1 0.3,-0.2 0.3,-0.2z" fill="#ad9cff"/><path d="M246.9,215.2c0,0 -0.2,0.1 -0.6,0.3c-0.4,0.2 -1,0.4 -1.7,0.1c-0.4,-0.1 -0.7,-0.3 -1,-0.7c-0.1,-0.1 -0.1,-0.2 -0.2,-0.3c0,-0.1 -0.1,-0.2 -0.1,-0.3c-0.1,-0.2 -0.2,-0.4 -0.2,-0.7c-0.1,-0.9 0.2,-1.9 1,-2.5c0.4,-0.3 0.9,-0.5 1.4,-0.6c0.5,0 1,0.1 1.4,0.3c0.4,0.2 0.8,0.6 1,1c0.2,0.4 0.3,0.8 0.3,1.2c0,0.8 -0.4,1.3 -0.7,1.6c-0.4,0.5 -0.6,0.6 -0.6,0.6zM246.8,215.2c0,0 0,0 0.1,-0.1c0.1,-0.1 0.2,-0.2 0.3,-0.3c0.2,-0.3 0.4,-0.9 0.3,-1.5c0,-0.3 -0.1,-0.6 -0.3,-0.9c-0.2,-0.3 -0.4,-0.6 -0.8,-0.8c-0.7,-0.4 -1.6,-0.4 -2.3,0c-0.4,0.2 -0.7,0.6 -0.8,1c-0.2,0.4 -0.2,0.9 0,1.3c0.1,0.4 0.4,0.7 0.6,1c0.3,0.3 0.5,0.4 0.8,0.6c0.6,0.3 1.2,0.3 1.6,0.1c0.2,-0.1 0.3,-0.1 0.4,-0.2c0.1,-0.2 0.1,-0.2 0.1,-0.2z" fill="#ad9cff"/></g></g></svg>