<svg xmlns="http://www.w3.org/2000/svg" xmlns:xlink="http://www.w3.org/1999/xlink" version="1.1" width="494.669944625885" height="374.6680525360413" viewBox="-6.3684262542877255 -7.334026268020636 494.669944625885 374.6680525360413">
  <!-- Exported by Scratch - http://scratch.mit.edu/ -->
  <g id="ID0.924645765684545">
    <path id="ID0.11298934044316411" fill="#DBFFE2" d="M 1 0 L 480 0 L 480 360 L 1 360 L 1 0 Z " stroke-width="1"/>
    <g id="ID0.6381962765008211">
      <g id="ID0.5106810196302831">
        <path id="ID0.2934924350120127" fill="#FFFFFF" stroke="#FFFFFF" stroke-width="14.668052536041271" stroke-linecap="round" d="M 249.6114 39.2 L 185.1335 4.9 L 122.5661 39.6 L 56.7509 4.9 L 0.9656 34.6 L 0.9656 72.4 L 58.0882 42.4 L 123.8079 77 L 186.3753 42.4 L 250.28 76.3 L 249.6114 39.2 "/>
        <path id="ID0.6386130140163004" fill="#FFFFFF" stroke="#FFFFFF" stroke-width="14.668052536041271" stroke-linecap="round" d="M 480.9675 21.5 L 449.6361 4.8 L 387.0687 39.5 L 321.2535 4.8 L 257.4442 38.8 L 256.1069 39.8 L 256.7756 76.9 L 322.5908 42.3 L 388.3104 76.9 L 450.8779 42.3 L 480.9675 58.3 L 480.9675 21.5 "/>
      </g>
      <g id="ID0.5106810196302831_1_">
        <path id="ID0.07775965007022023" fill="#FFFFFF" stroke="#FFFFFF" stroke-width="14.668052536041271" stroke-linecap="round" d="M 253.7189 132.1 L 189.1455 97.8 L 126.578 132.4 L 60.8584 97.8 L 0.9656 129.6 L 0.9656 167.4 L 62.1002 135.2 L 127.9154 169.9 L 190.4828 135.2 L 254.292 169.2 L 253.7189 132.1 "/>
        <path id="ID0.7981367814354599" fill="#FFFFFF" stroke="#FFFFFF" stroke-width="14.668052536041271" stroke-linecap="round" d="M 480.9675 112.2 L 453.648 97.6 L 391.0806 132.3 L 325.3609 97.6 L 261.4562 131.6 L 260.2144 132.6 L 260.7875 169.7 L 326.6027 135.1 L 392.4179 169.7 L 454.9853 135.1 L 480.9675 148.9 L 480.9675 112.2 "/>
      </g>
      <g id="ID0.5106810196302831_2_">
        <path id="ID0.4129948583431542_4_" fill="#FFFFFF" stroke="#FFFFFF" stroke-width="14.668052536041271" stroke-linecap="round" d="M 2.7805 316 L 3.4492 353.1 L 69.2644 318.5 L 135.0796 353.1 L 197.647 318.5 L 261.4562 352.4 L 260.7875 315.3 L 196.2141 281 L 133.6467 315.6 L 67.927 281 L 4.0223 315 L 2.7805 316 Z "/>
        <path id="ID0.8041921514086425" fill="#FFFFFF" stroke="#FFFFFF" stroke-width="14.668052536041271" stroke-linecap="round" d="M 480.9675 291.7 L 460.7167 280.9 L 398.1493 315.6 L 332.4296 280.9 L 268.5249 314.9 L 267.2831 315.9 L 267.8562 353 L 333.6714 318.4 L 399.4866 353 L 462.054 318.4 L 480.9675 328.5 L 480.9675 291.7 "/>
      </g>
      <g id="ID0.5106810196302831_3_">
        <path id="ID0.4512990266084671" fill="#FFFFFF" stroke="#FFFFFF" stroke-width="14.668052536041271" stroke-linecap="round" d="M 256.6801 222.5 L 192.2022 188.2 L 129.6348 222.9 L 63.8196 188.2 L 0.9656 221.6 L 0.9656 259.5 L 65.1569 225.7 L 130.8766 260.3 L 193.444 225.7 L 257.3487 259.6 L 256.6801 222.5 "/>
        <path id="ID0.9629462924785912" fill="#FFFFFF" stroke="#FFFFFF" stroke-width="14.668052536041271" stroke-linecap="round" d="M 480.9675 201.1 L 456.7048 188.1 L 394.1373 222.8 L 328.3221 188.1 L 264.5129 222.1 L 263.1756 223.1 L 263.8443 260.2 L 329.6595 225.6 L 395.3791 260.2 L 457.9466 225.6 L 480.9675 237.8 L 480.9675 201.1 "/>
      </g>
    </g>
  </g>
  <path id="ID0.9278498468920588" fill="none" stroke="#000000" stroke-width="2" stroke-linecap="round" d="M 480 21 L 480.300 21.300 "/>
</svg>